<svg width="313" height="145" viewBox="0 0 313 145" fill="none" xmlns="http://www.w3.org/2000/svg">
<path fill-rule="evenodd" clip-rule="evenodd" d="M191.936 0H264.064C291.091 0 313 21.7142 313 48.5C313 75.2858 291.091 97 264.064 97H191.936C190.466 97 189.012 96.9358 187.575 96.8101L183.14 96.2187C182.162 96.0428 181.194 95.8381 180.237 95.6054L174.231 93.7284C170.881 92.4394 167.71 90.7954 164.764 88.843L164.55 88.7002C151.547 79.9822 143 65.2304 143 48.5C143 21.7142 164.909 0 191.936 0ZM164.55 88.7002C164.621 88.748 164.693 88.7956 164.764 88.843L168 91.0001L173.5 93.5001L174.231 93.7284C176.176 94.4768 178.181 95.1055 180.237 95.6054L181.5 96.0001L183.14 96.2187C184.597 96.4808 186.076 96.6789 187.575 96.8101L189 97.0001L166.032 120.297C165.588 120.748 164.996 121 164.379 121C163.065 121 162 119.878 162 118.493V87.0001L164.55 88.7002ZM185.92 53.6331C188.637 53.6331 190.839 51.7005 190.839 49.3166C190.839 46.9326 188.637 45 185.92 45C183.203 45 181 46.9326 181 49.3166C181 51.7005 183.203 53.6331 185.92 53.6331ZM214.839 49.3166C214.839 51.7005 212.637 53.6331 209.92 53.6331C207.203 53.6331 205 51.7005 205 49.3166C205 46.9326 207.203 45 209.92 45C212.637 45 214.839 46.9326 214.839 49.3166ZM233.92 53.6331C236.637 53.6331 238.839 51.7005 238.839 49.3166C238.839 46.9326 236.637 45 233.92 45C231.203 45 229 46.9326 229 49.3166C229 51.7005 231.203 53.6331 233.92 53.6331ZM258.839 49.3166C258.839 51.7005 256.637 53.6331 253.92 53.6331C251.203 53.6331 249 51.7005 249 49.3166C249 46.9326 251.203 45 253.92 45C256.637 45 258.839 46.9326 258.839 49.3166Z" fill="#3485FF"/>
<path fill-rule="evenodd" clip-rule="evenodd" d="M35.6865 67C15.9774 67 0 82.3355 0 101.253V101.34C0 120.257 15.9774 135.593 35.6865 135.593H88.3135C90.2794 135.593 92.2082 135.44 94.0877 135.147L104.284 144.599C104.561 144.856 104.931 145 105.317 145C106.138 145 106.804 144.361 106.804 143.573L106.804 130.642C117.113 124.636 124 113.76 124 101.34V101.253C124 82.3355 108.023 67 88.3135 67H35.6865Z" fill="#1D4885"/>
</svg>
